<svg width="24" height="24" viewBox="0 0 24 24" fill="none" xmlns="http://www.w3.org/2000/svg">
<path fill-rule="evenodd" clip-rule="evenodd" d="M13.2381 4.09808L13.8539 0.142191C13.2441 0.0478958 12.6207 0 11.9989 0H11.9899V8.07193H11.9989C12.3399 8.07193 12.6778 8.11533 13.0038 8.20213L14.0507 4.26871C13.7834 4.19836 13.5115 4.14149 13.2366 4.09958L13.2381 4.09808Z" fill="white"/>
<path fill-rule="evenodd" clip-rule="evenodd" d="M10.0459 8.59308L8.0301 5.13259C7.79275 5.27029 7.56144 5.41996 7.3391 5.58012L4.93127 2.29327C5.43748 1.92507 5.97673 1.59429 6.53402 1.30991L8.36658 4.87365C8.73904 4.68357 9.12508 4.52342 9.52164 4.3947L8.27343 0.58848C8.86824 0.3954 9.48559 0.247223 10.1045 0.148438L10.7459 4.16719C10.474 4.21059 10.2051 4.26897 9.93925 4.33931L10.9817 8.20389C10.6542 8.29219 10.3388 8.42246 10.0444 8.59308H10.0459Z" fill="white"/>
<path fill-rule="evenodd" clip-rule="evenodd" d="M4.93878 8.38458L1.29921 6.53906C1.01382 7.09589 0.771979 7.68111 0.579712 8.2753L4.46562 9.52657C4.5933 9.13594 4.75252 8.75124 4.93878 8.38458Z" fill="white"/>
<path fill-rule="evenodd" clip-rule="evenodd" d="M18.8463 7.99868L15.375 10.0088C15.5462 10.3022 15.6769 10.6165 15.7655 10.9428L19.6424 9.90106C19.7145 10.166 19.7731 10.4339 19.8152 10.7048L23.8483 10.0642C23.7491 9.44604 23.6004 8.83237 23.4066 8.23818L19.5869 9.48197C19.4577 9.0868 19.2969 8.70216 19.1062 8.33246L22.6811 6.50493C22.3958 5.95116 22.0638 5.41383 21.6942 4.90942L18.3972 7.31021C18.5594 7.53171 18.7081 7.76224 18.8478 7.99868H18.8463Z" fill="white"/>
<path fill-rule="evenodd" clip-rule="evenodd" d="M17.4302 1.29348C16.87 1.01059 16.2841 0.769618 15.6878 0.576538L14.4336 4.44861C14.8256 4.57434 15.2116 4.73299 15.5797 4.92008L17.4302 1.29198V1.29348Z" fill="white"/>
<path fill-rule="evenodd" clip-rule="evenodd" d="M15.9805 5.06028L13.9421 8.58658C14.238 8.75577 14.5099 8.96381 14.7518 9.20474L20.4702 3.48721C20.0271 3.04717 19.5449 2.63856 19.0387 2.27185L16.6804 5.5123C16.4551 5.35065 16.2223 5.19948 15.982 5.06028H15.9805Z" fill="white"/>
<path fill-rule="evenodd" clip-rule="evenodd" d="M8.61877 10.0188L5.08132 7.98475C5.21951 7.74526 5.37272 7.5133 5.53495 7.28875L2.28442 4.93738C2.65244 4.43298 3.06251 3.95252 3.50562 3.51099L9.2406 9.21055C8.99877 9.45154 8.78999 9.72398 8.62026 10.0173L8.61877 10.0188Z" fill="white"/>
<path fill-rule="evenodd" clip-rule="evenodd" d="M4.28396 9.90942L8.22994 10.9556C8.14283 11.2804 8.09925 11.6172 8.09925 11.9585H0C0 11.3374 0.0480669 10.7132 0.1442 10.104L4.11423 10.7207C4.15779 10.4468 4.21336 10.1774 4.28547 9.90942H4.28396Z" fill="white"/>
<path fill-rule="evenodd" clip-rule="evenodd" d="M19.0602 15.528L22.6998 17.3735C22.9836 16.8167 23.227 16.2314 23.4192 15.6373L19.5333 14.386C19.4057 14.7766 19.2465 15.1613 19.0602 15.528Z" fill="white"/>
<path fill-rule="evenodd" clip-rule="evenodd" d="M13.9529 15.3203L15.9687 18.7808C16.206 18.6431 16.4374 18.4934 16.6597 18.3333L19.0676 21.6201C18.5614 21.9883 18.0221 22.3191 17.4648 22.6035L15.6323 19.0398C15.2597 19.2298 14.8752 19.39 14.4771 19.5187L15.7239 23.3249C15.1291 23.518 14.5117 23.6662 13.8929 23.7649L13.2515 19.7462C13.5233 19.7028 13.7922 19.6444 14.0581 19.5741L13.0156 15.7095C13.3431 15.6212 13.6585 15.4909 13.9529 15.3203Z" fill="white"/>
<path fill-rule="evenodd" clip-rule="evenodd" d="M5.15272 15.9144L8.62405 13.9043C8.45283 13.6109 8.32213 13.2966 8.23353 12.9703L4.35661 14.0121C4.28451 13.7472 4.22593 13.4792 4.18387 13.2083L0.150757 13.8489C0.249895 14.4671 0.398602 15.0808 0.592371 15.6749L4.41218 14.4312C4.54136 14.8263 4.70209 15.211 4.89286 15.5807L1.31788 17.4082C1.60328 17.9635 1.93524 18.4993 2.30475 19.0037L5.60184 16.6029C5.43962 16.3814 5.29091 16.1509 5.15122 15.9144H5.15272Z" fill="white"/>
<path fill-rule="evenodd" clip-rule="evenodd" d="M6.56799 22.622C7.12825 22.9049 7.71409 23.1458 8.31039 23.3389L9.56464 19.4668C9.17256 19.3411 8.78653 19.1824 8.41854 18.9954L6.56799 22.622Z" fill="white"/>
<path fill-rule="evenodd" clip-rule="evenodd" d="M8.0187 18.8523L10.057 15.3275C9.76109 15.1583 9.48925 14.9503 9.24741 14.7094L3.52893 20.4269C3.97205 20.8669 4.45422 21.2756 4.96042 21.6422L7.31872 18.4018C7.544 18.5634 7.77686 18.7146 8.0172 18.8538L8.0187 18.8523Z" fill="white"/>
<path fill-rule="evenodd" clip-rule="evenodd" d="M15.3797 13.8953L18.9171 15.9293C18.7789 16.1688 18.6257 16.4008 18.4635 16.6253L21.714 18.9767C21.346 19.4811 20.936 19.9616 20.4928 20.4031L14.7578 14.7035C14.9996 14.4626 15.2085 14.1901 15.3782 13.8968L15.3797 13.8953Z" fill="white"/>
<path fill-rule="evenodd" clip-rule="evenodd" d="M10.9954 15.714L9.94849 19.6474C10.2158 19.7178 10.4877 19.7746 10.7626 19.8166L10.1452 23.7725C10.7551 23.8668 11.3784 23.9147 12.0003 23.9147H12.0094V15.8427H12.0003C11.6594 15.8427 11.3213 15.7993 10.9954 15.7125V15.714Z" fill="white"/>
<path fill-rule="evenodd" clip-rule="evenodd" d="M15.7688 12.9592C15.8559 12.6344 15.8995 12.2976 15.8995 11.9563H24.0003C24.0003 12.5775 23.9522 13.2016 23.8561 13.8108L19.8861 13.1941C19.8425 13.468 19.7869 13.7374 19.7148 14.0054L15.7688 12.9592Z" fill="white"/>
</svg>
