<svg width="22" height="22" viewBox="0 0 22 22" fill="none" xmlns="http://www.w3.org/2000/svg">
<g clip-path="url(#clip0_1408_10509)">
<path d="M18.2453 8.16016H9.99382C8.98111 8.16016 8.16016 8.98112 8.16016 9.99382V18.2453C8.16016 19.258 8.98111 20.0789 9.99382 20.0789H18.2453C19.258 20.0789 20.079 19.258 20.079 18.2453V9.99382C20.079 8.98112 19.258 8.16016 18.2453 8.16016Z" stroke="black" stroke-width="2" stroke-linecap="round" stroke-linejoin="round"/>
<path d="M7.56299 13.6649H3.57584C3.08953 13.6649 2.62313 13.4717 2.27925 13.1278C1.93537 12.784 1.74219 12.3176 1.74219 11.8313V3.57975C1.74219 3.09343 1.93537 2.62703 2.27925 2.28316C2.62313 1.93928 3.08953 1.74609 3.57584 1.74609H11.8273C12.3136 1.74609 12.78 1.93928 13.1239 2.28316C13.4678 2.62703 13.6609 3.09343 13.6609 3.57975V8.07861" stroke="black" stroke-width="2" stroke-linecap="round" stroke-linejoin="round"/>
</g>
<defs>
<clipPath id="clip0_1408_10509">
<rect width="22" height="22" fill="white"/>
</clipPath>
</defs>
</svg>
